<svg width="50" height="42" viewBox="0 0 50 42" fill="none" xmlns="http://www.w3.org/2000/svg">
<path d="M46.0008 8.78335H38.8975L35.5642 0.450012H14.4358L11.1025 8.78335H10V4.61668H5V8.78335H3.99917C1.79333 8.78335 0 10.5767 0 12.7825V37.2558C0 39.4767 1.80667 41.2833 4.0275 41.2833H45.9725C48.1933 41.2833 50 39.4767 50 37.2558V12.7825C50 10.5767 48.2067 8.78335 46.0008 8.78335ZM6.66667 6.28335H8.33333V8.78335H6.66667V6.28335ZM48.3333 37.2558C48.3333 38.5583 47.2742 39.6167 45.9725 39.6167H4.0275C2.72583 39.6167 1.66667 38.5575 1.66667 37.2558V12.7825C1.66667 11.4967 2.71333 10.45 3.99917 10.45H5H10H12.2308L15.5642 2.11668H34.4358L37.7692 10.45H46.0008C47.2867 10.45 48.3333 11.4967 48.3333 12.7825V37.2558Z" fill="black"/>
<path d="M25 7.95001C16.7292 7.95001 10 14.6792 10 22.95C10 31.2208 16.7292 37.95 25 37.95C33.2708 37.95 40 31.2208 40 22.95C40 14.6792 33.2708 7.95001 25 7.95001ZM25 36.2833C17.6483 36.2833 11.6667 30.3017 11.6667 22.95C11.6667 15.5983 17.6483 9.61668 25 9.61668C32.3517 9.61668 38.3333 15.5983 38.3333 22.95C38.3333 30.3017 32.3517 36.2833 25 36.2833Z" fill="black"/>
<path d="M25 12.95C19.4858 12.95 15 17.4358 15 22.95C15 28.4642 19.4858 32.95 25 32.95C30.5142 32.95 35 28.4642 35 22.95C35 17.4358 30.5142 12.95 25 12.95ZM25 31.2833C20.405 31.2833 16.6667 27.545 16.6667 22.95C16.6667 18.355 20.405 14.6167 25 14.6167C29.595 14.6167 33.3333 18.355 33.3333 22.95C33.3333 27.545 29.595 31.2833 25 31.2833Z" fill="black"/>
<path d="M43.3333 12.1167C41.495 12.1167 40 13.6117 40 15.45C40 17.2883 41.495 18.7833 43.3333 18.7833C45.1717 18.7833 46.6667 17.2883 46.6667 15.45C46.6667 13.6117 45.1717 12.1167 43.3333 12.1167ZM43.3333 17.1167C42.4142 17.1167 41.6667 16.3692 41.6667 15.45C41.6667 14.5308 42.4142 13.7833 43.3333 13.7833C44.2525 13.7833 45 14.5308 45 15.45C45 16.3692 44.2525 17.1167 43.3333 17.1167Z" fill="black"/>
</svg>
