<svg width="29" height="52" viewBox="0 0 29 52" fill="none" xmlns="http://www.w3.org/2000/svg">
<path d="M27.7931 25.1035C27.2982 25.1035 26.8966 25.5042 26.8966 26V31.3793C26.8966 38.3007 21.2662 43.931 14.3448 43.931C7.42345 43.931 1.7931 38.3007 1.7931 31.3793V26C1.7931 25.5042 1.39145 25.1035 0.896552 25.1035C0.401655 25.1035 0 25.5042 0 26V31.3793C0 38.9866 5.95669 45.2122 13.4483 45.6784V50.2069H8.96552C8.47062 50.2069 8.06897 50.6077 8.06897 51.1035C8.06897 51.5992 8.47062 52 8.96552 52H19.7241C20.219 52 20.6207 51.5992 20.6207 51.1035C20.6207 50.6077 20.219 50.2069 19.7241 50.2069H15.2414V45.6784C22.733 45.2122 28.6897 38.9857 28.6897 31.3793V26C28.6897 25.5042 28.288 25.1035 27.7931 25.1035Z" fill="black"/>
<path d="M14.3448 41.2414C19.7824 41.2414 24.2069 36.8169 24.2069 31.3793V9.86207C24.2069 4.42448 19.7824 0 14.3448 0C8.90724 0 4.48276 4.42448 4.48276 9.86207V31.3793C4.48276 36.8169 8.90724 41.2414 14.3448 41.2414ZM8.48945 4.32676C8.62931 4.41731 8.78621 4.48276 8.96552 4.48276C9.46041 4.48276 9.86207 4.0811 9.86207 3.58621C9.86207 3.45352 9.82979 3.32979 9.77779 3.21683C11.0778 2.32117 12.6503 1.7931 14.3448 1.7931C16.0393 1.7931 17.6119 2.32117 18.9119 3.21683C18.8599 3.32979 18.8276 3.45352 18.8276 3.58621C18.8276 4.0811 19.2292 4.48276 19.7241 4.48276C19.9034 4.48276 20.0603 4.41731 20.2002 4.32676C20.7292 4.88531 21.1774 5.51828 21.5307 6.20952C21.5289 6.23283 21.5172 6.25255 21.5172 6.27586C21.5172 6.56186 21.6598 6.80572 21.8687 6.96979C22.2157 7.86903 22.4138 8.84179 22.4138 9.86207V10.7586C21.9189 10.7586 21.5172 11.1603 21.5172 11.6552C21.5172 12.1501 21.9189 12.5517 22.4138 12.5517V16.1379C21.9189 16.1379 21.5172 16.5396 21.5172 17.0345C21.5172 17.5294 21.9189 17.931 22.4138 17.931V21.5172C21.9189 21.5172 21.5172 21.9189 21.5172 22.4138C21.5172 22.9087 21.9189 23.3103 22.4138 23.3103V26.8966C21.9189 26.8966 21.5172 27.2982 21.5172 27.7931C21.5172 28.288 21.9189 28.6897 22.4138 28.6897V31.3793C22.4138 31.6868 22.3932 31.9881 22.3591 32.2866C21.8911 32.3162 21.5172 32.6963 21.5172 33.1724C21.5172 33.5104 21.7118 33.7937 21.9879 33.947C21.3012 35.984 19.8245 37.6561 17.9212 38.6019C17.9221 38.584 17.931 38.5697 17.931 38.5517C17.931 38.0568 17.5294 37.6552 17.0345 37.6552C16.5396 37.6552 16.1379 38.0568 16.1379 38.5517C16.1379 38.7947 16.2366 39.0134 16.3934 39.1748C15.7381 39.347 15.054 39.4483 14.3448 39.4483C13.6357 39.4483 12.9516 39.347 12.2962 39.1748C12.4531 39.0134 12.5517 38.7947 12.5517 38.5517C12.5517 38.0568 12.1501 37.6552 11.6552 37.6552C11.1603 37.6552 10.7586 38.0568 10.7586 38.5517C10.7586 38.5697 10.7676 38.584 10.7685 38.6019C8.8651 37.6552 7.38759 35.984 6.70172 33.947C6.97786 33.7937 7.17241 33.5104 7.17241 33.1724C7.17241 32.6963 6.79855 32.3162 6.33055 32.2866C6.29648 31.9881 6.27586 31.6868 6.27586 31.3793V28.6897C6.77076 28.6897 7.17241 28.288 7.17241 27.7931C7.17241 27.2982 6.77076 26.8966 6.27586 26.8966V23.3103C6.77076 23.3103 7.17241 22.9087 7.17241 22.4138C7.17241 21.9189 6.77076 21.5172 6.27586 21.5172V17.931C6.77076 17.931 7.17241 17.5294 7.17241 17.0345C7.17241 16.5396 6.77076 16.1379 6.27586 16.1379V12.5517C6.77076 12.5517 7.17241 12.1501 7.17241 11.6552C7.17241 11.1603 6.77076 10.7586 6.27586 10.7586V9.86207C6.27586 8.84179 6.474 7.86903 6.82096 6.96979C7.02986 6.80572 7.17241 6.56186 7.17241 6.27586C7.17241 6.25255 7.16076 6.23283 7.15897 6.20952C7.51221 5.51828 7.96048 4.88531 8.48945 4.32676Z" fill="black"/>
<path d="M14.3448 4.48277C14.84 4.48277 15.2414 4.08137 15.2414 3.58622C15.2414 3.09107 14.84 2.68967 14.3448 2.68967C13.8497 2.68967 13.4483 3.09107 13.4483 3.58622C13.4483 4.08137 13.8497 4.48277 14.3448 4.48277Z" fill="black"/>
<path d="M11.6552 7.17241C12.1503 7.17241 12.5517 6.77101 12.5517 6.27585C12.5517 5.7807 12.1503 5.3793 11.6552 5.3793C11.16 5.3793 10.7586 5.7807 10.7586 6.27585C10.7586 6.77101 11.16 7.17241 11.6552 7.17241Z" fill="black"/>
<path d="M11.6552 12.5517C12.1503 12.5517 12.5517 12.1503 12.5517 11.6552C12.5517 11.16 12.1503 10.7586 11.6552 10.7586C11.16 10.7586 10.7586 11.16 10.7586 11.6552C10.7586 12.1503 11.16 12.5517 11.6552 12.5517Z" fill="black"/>
<path d="M8.96552 9.86207C9.46067 9.86207 9.86207 9.46067 9.86207 8.96552C9.86207 8.47037 9.46067 8.06897 8.96552 8.06897C8.47037 8.06897 8.06897 8.47037 8.06897 8.96552C8.06897 9.46067 8.47037 9.86207 8.96552 9.86207Z" fill="black"/>
<path d="M14.3448 9.86207C14.84 9.86207 15.2414 9.46067 15.2414 8.96552C15.2414 8.47037 14.84 8.06897 14.3448 8.06897C13.8497 8.06897 13.4483 8.47037 13.4483 8.96552C13.4483 9.46067 13.8497 9.86207 14.3448 9.86207Z" fill="black"/>
<path d="M8.96552 15.2414C9.46067 15.2414 9.86207 14.84 9.86207 14.3448C9.86207 13.8497 9.46067 13.4483 8.96552 13.4483C8.47037 13.4483 8.06897 13.8497 8.06897 14.3448C8.06897 14.84 8.47037 15.2414 8.96552 15.2414Z" fill="black"/>
<path d="M14.3448 15.2414C14.84 15.2414 15.2414 14.84 15.2414 14.3448C15.2414 13.8497 14.84 13.4483 14.3448 13.4483C13.8497 13.4483 13.4483 13.8497 13.4483 14.3448C13.4483 14.84 13.8497 15.2414 14.3448 15.2414Z" fill="black"/>
<path d="M17.0345 7.17241C17.5296 7.17241 17.931 6.77101 17.931 6.27585C17.931 5.7807 17.5296 5.3793 17.0345 5.3793C16.5393 5.3793 16.1379 5.7807 16.1379 6.27585C16.1379 6.77101 16.5393 7.17241 17.0345 7.17241Z" fill="black"/>
<path d="M17.0345 12.5517C17.5296 12.5517 17.931 12.1503 17.931 11.6552C17.931 11.16 17.5296 10.7586 17.0345 10.7586C16.5393 10.7586 16.1379 11.16 16.1379 11.6552C16.1379 12.1503 16.5393 12.5517 17.0345 12.5517Z" fill="black"/>
<path d="M19.7241 9.86207C20.2193 9.86207 20.6207 9.46067 20.6207 8.96552C20.6207 8.47037 20.2193 8.06897 19.7241 8.06897C19.229 8.06897 18.8276 8.47037 18.8276 8.96552C18.8276 9.46067 19.229 9.86207 19.7241 9.86207Z" fill="black"/>
<path d="M19.7241 15.2414C20.2193 15.2414 20.6207 14.84 20.6207 14.3448C20.6207 13.8497 20.2193 13.4483 19.7241 13.4483C19.229 13.4483 18.8276 13.8497 18.8276 14.3448C18.8276 14.84 19.229 15.2414 19.7241 15.2414Z" fill="black"/>
<path d="M11.6552 17.931C12.1503 17.931 12.5517 17.5296 12.5517 17.0345C12.5517 16.5393 12.1503 16.1379 11.6552 16.1379C11.16 16.1379 10.7586 16.5393 10.7586 17.0345C10.7586 17.5296 11.16 17.931 11.6552 17.931Z" fill="black"/>
<path d="M11.6552 23.3103C12.1503 23.3103 12.5517 22.9089 12.5517 22.4138C12.5517 21.9186 12.1503 21.5172 11.6552 21.5172C11.16 21.5172 10.7586 21.9186 10.7586 22.4138C10.7586 22.9089 11.16 23.3103 11.6552 23.3103Z" fill="black"/>
<path d="M8.96552 20.6207C9.46067 20.6207 9.86207 20.2193 9.86207 19.7241C9.86207 19.229 9.46067 18.8276 8.96552 18.8276C8.47037 18.8276 8.06897 19.229 8.06897 19.7241C8.06897 20.2193 8.47037 20.6207 8.96552 20.6207Z" fill="black"/>
<path d="M14.3448 20.6207C14.84 20.6207 15.2414 20.2193 15.2414 19.7241C15.2414 19.229 14.84 18.8276 14.3448 18.8276C13.8497 18.8276 13.4483 19.229 13.4483 19.7241C13.4483 20.2193 13.8497 20.6207 14.3448 20.6207Z" fill="black"/>
<path d="M8.96552 26C9.46067 26 9.86207 25.5986 9.86207 25.1035C9.86207 24.6083 9.46067 24.2069 8.96552 24.2069C8.47037 24.2069 8.06897 24.6083 8.06897 25.1035C8.06897 25.5986 8.47037 26 8.96552 26Z" fill="black"/>
<path d="M14.3448 26C14.84 26 15.2414 25.5986 15.2414 25.1035C15.2414 24.6083 14.84 24.2069 14.3448 24.2069C13.8497 24.2069 13.4483 24.6083 13.4483 25.1035C13.4483 25.5986 13.8497 26 14.3448 26Z" fill="black"/>
<path d="M17.0345 17.931C17.5296 17.931 17.931 17.5296 17.931 17.0345C17.931 16.5393 17.5296 16.1379 17.0345 16.1379C16.5393 16.1379 16.1379 16.5393 16.1379 17.0345C16.1379 17.5296 16.5393 17.931 17.0345 17.931Z" fill="black"/>
<path d="M17.0345 23.3103C17.5296 23.3103 17.931 22.9089 17.931 22.4138C17.931 21.9186 17.5296 21.5172 17.0345 21.5172C16.5393 21.5172 16.1379 21.9186 16.1379 22.4138C16.1379 22.9089 16.5393 23.3103 17.0345 23.3103Z" fill="black"/>
<path d="M19.7241 20.6207C20.2193 20.6207 20.6207 20.2193 20.6207 19.7241C20.6207 19.229 20.2193 18.8276 19.7241 18.8276C19.229 18.8276 18.8276 19.229 18.8276 19.7241C18.8276 20.2193 19.229 20.6207 19.7241 20.6207Z" fill="black"/>
<path d="M19.7241 26C20.2193 26 20.6207 25.5986 20.6207 25.1035C20.6207 24.6083 20.2193 24.2069 19.7241 24.2069C19.229 24.2069 18.8276 24.6083 18.8276 25.1035C18.8276 25.5986 19.229 26 19.7241 26Z" fill="black"/>
<path d="M11.6552 28.6896C12.1503 28.6896 12.5517 28.2882 12.5517 27.7931C12.5517 27.2979 12.1503 26.8965 11.6552 26.8965C11.16 26.8965 10.7586 27.2979 10.7586 27.7931C10.7586 28.2882 11.16 28.6896 11.6552 28.6896Z" fill="black"/>
<path d="M11.6552 34.069C12.1503 34.069 12.5517 33.6676 12.5517 33.1724C12.5517 32.6773 12.1503 32.2759 11.6552 32.2759C11.16 32.2759 10.7586 32.6773 10.7586 33.1724C10.7586 33.6676 11.16 34.069 11.6552 34.069Z" fill="black"/>
<path d="M8.96552 31.3793C9.46067 31.3793 9.86207 30.9779 9.86207 30.4828C9.86207 29.9876 9.46067 29.5862 8.96552 29.5862C8.47037 29.5862 8.06897 29.9876 8.06897 30.4828C8.06897 30.9779 8.47037 31.3793 8.96552 31.3793Z" fill="black"/>
<path d="M14.3448 31.3793C14.84 31.3793 15.2414 30.9779 15.2414 30.4828C15.2414 29.9876 14.84 29.5862 14.3448 29.5862C13.8497 29.5862 13.4483 29.9876 13.4483 30.4828C13.4483 30.9779 13.8497 31.3793 14.3448 31.3793Z" fill="black"/>
<path d="M8.96552 36.7586C9.46067 36.7586 9.86207 36.3572 9.86207 35.8621C9.86207 35.3669 9.46067 34.9655 8.96552 34.9655C8.47037 34.9655 8.06897 35.3669 8.06897 35.8621C8.06897 36.3572 8.47037 36.7586 8.96552 36.7586Z" fill="black"/>
<path d="M14.3448 36.7586C14.84 36.7586 15.2414 36.3572 15.2414 35.8621C15.2414 35.3669 14.84 34.9655 14.3448 34.9655C13.8497 34.9655 13.4483 35.3669 13.4483 35.8621C13.4483 36.3572 13.8497 36.7586 14.3448 36.7586Z" fill="black"/>
<path d="M17.0345 28.6896C17.5296 28.6896 17.931 28.2882 17.931 27.7931C17.931 27.2979 17.5296 26.8965 17.0345 26.8965C16.5393 26.8965 16.1379 27.2979 16.1379 27.7931C16.1379 28.2882 16.5393 28.6896 17.0345 28.6896Z" fill="black"/>
<path d="M17.0345 34.069C17.5296 34.069 17.931 33.6676 17.931 33.1724C17.931 32.6773 17.5296 32.2759 17.0345 32.2759C16.5393 32.2759 16.1379 32.6773 16.1379 33.1724C16.1379 33.6676 16.5393 34.069 17.0345 34.069Z" fill="black"/>
<path d="M19.7241 31.3793C20.2193 31.3793 20.6207 30.9779 20.6207 30.4828C20.6207 29.9876 20.2193 29.5862 19.7241 29.5862C19.229 29.5862 18.8276 29.9876 18.8276 30.4828C18.8276 30.9779 19.229 31.3793 19.7241 31.3793Z" fill="black"/>
<path d="M19.7241 36.7586C20.2193 36.7586 20.6207 36.3572 20.6207 35.8621C20.6207 35.3669 20.2193 34.9655 19.7241 34.9655C19.229 34.9655 18.8276 35.3669 18.8276 35.8621C18.8276 36.3572 19.229 36.7586 19.7241 36.7586Z" fill="black"/>
</svg>
